<svg width="4001" height="2160" viewBox="0 0 4001 2160" fill="none" xmlns="http://www.w3.org/2000/svg">
<g clip-path="url(#clip0_41_47)">
<path d="M608 278.5L1154.5 710L1343 1210.5L723 1640L2.00003 1292L175.5 794L608 278.5Z" fill="#2D2828"/>
<path d="M174.559 793.825L605.894 278L578.744 687.807L1.38062 1291.93L174.559 793.825Z" fill="#171717"/>
<path d="M606.354 278.15L1156.11 709.882L1348 1210.99L578.284 690.36L606.354 278.15Z" fill="#302929"/>
<path d="M0 1291.33L577.21 689.91L1348 1208.14L722.625 1640.92L0 1291.33Z" fill="#141313"/>
<path d="M965.815 838.6C975.415 838.6 983.615 840.6 990.415 844.6C997.215 848.2 1003.42 855 1009.02 865L1123.62 1057C1130.02 1067.8 1136.62 1079.8 1143.42 1093C1150.62 1105.8 1157.21 1118.2 1163.21 1130.2C1169.21 1141.8 1174.02 1151.4 1177.62 1159L1179.99 1158.4C1176.72 1128.28 1174.73 1097.68 1174.02 1066.6C1173.62 1031.4 1173.42 997.399 1173.42 964.6V843.4C1175.82 842.6 1179.02 841.8 1183.02 841C1187.02 839.8 1191.42 839.2 1196.21 839.2C1205.01 839.2 1211.62 841 1216.02 844.6C1220.42 847.8 1222.62 853.2 1222.62 860.8V1200.4C1219.02 1203.2 1214.42 1205.6 1208.82 1207.6C1203.22 1209.6 1197.01 1210.6 1190.21 1210.6C1180.62 1210.6 1172.42 1208.8 1165.62 1205.2C1158.82 1201.2 1152.62 1194.2 1147.02 1184.2L1033.02 992.2C1027.02 981.4 1020.41 969.6 1013.21 956.8C1006.01 943.6 999.215 931.2 992.815 919.6C986.416 907.6 981.415 897.8 977.815 890.2L975.495 890.795C976.573 900.645 977.547 911.647 978.415 923.8C979.615 940.6 980.415 958 980.815 976C981.615 993.6 982.016 1010.4 982.016 1026.4V1205.8C980.016 1206.6 976.815 1207.4 972.415 1208.2C968.415 1209.4 964.215 1210 959.815 1210C951.016 1210 944.416 1208.4 940.016 1205.2C935.616 1201.6 933.415 1196 933.415 1188.4V849.4C936.615 846.2 941.015 843.6 946.615 841.6C952.615 839.6 959.015 838.6 965.815 838.6ZM841.784 839.2C850.584 839.2 856.984 841 860.984 844.6C865.384 847.8 867.584 853.4 867.584 861.4V1205.8C865.584 1206.6 862.584 1207.4 858.584 1208.2C854.584 1209.4 850.184 1210 845.384 1210C836.584 1210 829.984 1208.2 825.584 1204.6C821.184 1201 818.984 1195.4 818.984 1187.8V843.4C820.984 842.6 823.984 841.8 827.984 841C832.384 839.8 836.984 839.2 841.784 839.2ZM762.8 842.2C770.4 848.6 774.199 856.2 774.199 865C774.199 870.6 773 875.6 770.6 880C768.6 884.4 765.6 889.4 761.6 895L564.374 1165.6H772.399C773.999 1167.6 775.4 1170.4 776.6 1174C777.8 1177.2 778.399 1181 778.399 1185.4C778.399 1191.8 776.6 1197 773 1201C769.8 1205 765.4 1207 759.8 1207H514.399C511.199 1204.2 508.4 1200.8 506 1196.8C504 1192.8 503 1188.6 503 1184.2C503 1178.6 504 1173.6 506 1169.2C508.4 1164.4 511.6 1159.4 515.6 1154.2L713.346 883.6H513.199C511.999 881.6 510.6 878.8 509 875.2C507.8 871.6 507.199 867.8 507.199 863.8C507.199 857 508.8 851.8 512 848.2C515.6 844.2 520.4 842.2 526.399 842.2H762.8Z" fill="#E6E0E0"/>
<path d="M1591.98 890.4C1591.98 895.6 1590.18 900.4 1586.58 904.8C1583.38 908.8 1579.58 911.8 1575.18 913.8C1565.18 906.6 1552.98 899.8 1538.58 893.4C1524.58 887 1506.38 883.8 1483.98 883.8C1459.58 883.8 1437.58 889.4 1417.98 900.6C1398.78 911.8 1383.38 928.6 1371.78 951C1360.58 973 1354.98 1000.4 1354.98 1033.2C1354.98 1082.4 1366.98 1119.4 1390.98 1144.2C1415.38 1169 1446.98 1181.4 1485.78 1181.4C1506.58 1181.4 1524.78 1178.4 1540.38 1172.4C1555.98 1166.4 1568.78 1159.6 1578.78 1152C1582.78 1153.6 1586.58 1156.6 1590.18 1161C1593.78 1165 1595.58 1169.8 1595.58 1175.4C1595.58 1179.4 1594.38 1183.4 1591.98 1187.4C1589.98 1191 1586.38 1194.6 1581.18 1198.2C1571.98 1204.6 1559.38 1210.2 1543.38 1215C1527.38 1220.2 1506.98 1222.8 1482.18 1222.8C1448.98 1222.8 1418.78 1215.8 1391.58 1201.8C1364.78 1187.4 1343.58 1166.2 1327.98 1138.2C1312.38 1110.2 1304.58 1075.2 1304.58 1033.2C1304.58 991.2 1312.58 956 1328.58 927.6C1344.98 899.2 1366.38 878 1392.78 864C1419.58 849.6 1448.78 842.4 1480.38 842.4C1502.38 842.4 1521.78 844.8 1538.58 849.6C1555.38 854.4 1568.38 860.6 1577.58 868.2C1587.18 875.4 1591.98 882.8 1591.98 890.4ZM1636.31 995.4H1684.91V1210.2C1683.31 1210.6 1680.31 1211.6 1675.91 1213.2C1671.51 1214.4 1667.11 1215 1662.71 1215C1654.71 1215 1648.31 1212.6 1643.51 1207.8C1638.71 1202.6 1636.31 1196.2 1636.31 1188.6V995.4ZM1684.91 1066.2L1636.31 1065.6V876.6C1636.31 868.6 1638.71 862.2 1643.51 857.4C1648.31 852.6 1654.71 850.2 1662.71 850.2C1667.11 850.2 1671.51 850.8 1675.91 852C1680.31 853.2 1683.31 854.2 1684.91 855V1066.2ZM1662.71 1048.2V1007.4H1843.31C1844.51 1009 1845.71 1011.6 1846.91 1015.2C1848.11 1018.8 1848.71 1022.6 1848.71 1026.6C1848.71 1033 1847.11 1038.2 1843.91 1042.2C1840.71 1046.2 1836.11 1048.2 1830.11 1048.2H1662.71ZM1662.71 1215V1174.2H1864.91C1866.11 1175.8 1867.31 1178.4 1868.51 1182C1869.71 1185.2 1870.31 1189 1870.31 1193.4C1870.31 1199.8 1868.71 1205 1865.51 1209C1862.31 1213 1857.71 1215 1851.71 1215H1662.71ZM1662.71 891.6V850.2H1861.91C1863.11 851.8 1864.31 854.4 1865.51 858C1866.71 861.6 1867.31 865.4 1867.31 869.4C1867.31 875.8 1865.71 881.2 1862.51 885.6C1859.31 889.6 1854.71 891.6 1848.71 891.6H1662.71Z" fill="#131313"/>
<line x1="1959.9" y1="864.501" x2="2021.68" y2="1189.28" stroke="#131313" stroke-width="44" stroke-linecap="round"/>
<line x1="22" y1="-22" x2="402.422" y2="-22" transform="matrix(-0.99998 0.00638924 -0.00792199 -0.999969 2428.59 1166)" stroke="#131313" stroke-width="44" stroke-linecap="round"/>
</g>
<defs>
<clipPath id="clip0_41_47">
<rect width="4001" height="2160" fill="white"/>
</clipPath>
</defs>
</svg>
